<?xml version="1.0" encoding="UTF-8" standalone="no"?>
<!DOCTYPE svg PUBLIC "-//W3C//DTD SVG 1.1//EN" "http://www.w3.org/Graphics/SVG/1.1/DTD/svg11.dtd">
<!-- 由 Microsoft Visio, SVG Export 生成 email.svg github-brands -->
<svg xmlns="http://www.w3.org/2000/svg" xmlns:xlink="http://www.w3.org/1999/xlink" xmlns:ev="http://www.w3.org/2001/xml-events"
		xmlns:v="http://schemas.microsoft.com/visio/2003/SVGExtensions/" width="8.5in" height="11in" viewBox="0 0 612 792"
		xml:space="preserve" color-interpolation-filters="sRGB" class="st3">
	<v:documentProperties v:langID="2052"/>

	<style type="text/css">
	<![CDATA[
		.st1 {fill:none;stroke:#f1f1f1;stroke-linecap:round;stroke-linejoin:round;stroke-width:30}
		.st2 {fill:#f1f1f1;stroke:none;stroke-linecap:butt;stroke-width:1.19531}
		.st3 {fill:none;fill-rule:evenodd;font-size:12px;overflow:visible;stroke-linecap:square;stroke-miterlimit:3}
	]]>
	</style>

	<g v:mID="0" v:index="1" v:groupContext="foregroundPage">
		<title>github-brands</title>
		<v:pageProperties v:drawingScale="1" v:pageScale="1" v:drawingUnits="19" v:shadowOffsetX="9" v:shadowOffsetY="-9"/>
		<v:layer v:name="连接线" v:index="0"/>
		<g id="shape1-1" v:mID="1" v:groupContext="shape" transform="translate(51.1432,-97.9767)">
			<title>工作表.2</title>
			<ellipse cx="270" cy="522.806" rx="270" ry="269.194" class="st1"/>
		</g>
		<g id="group2-3" transform="translate(133.572,-223.171)" v:mID="2" v:groupContext="group">
			<title>工作表.4</title>
			<g id="shape3-4" v:mID="3" v:groupContext="shape">
				<title>工作表.5</title>
				<path d="M339.97 504 C359.39 504 375.14 520.12 375.14 540 C375.14 551.33 369.94 561.98 361.08 568.8 L201.64 691.2
							 C193.29 697.58 181.86 697.58 173.5 691.2 L14.07 568.8 C5.21 561.98 0 551.33 0 540 C0 520.12 15.75 504
							 35.17 504 L339.97 504 ZM159.44 710.4 C176.14 723.23 199 723.23 215.71 710.4 L375.14 588 L375.14 744
							 C375.14 770.48 354.11 792 328.25 792 L46.89 792 C20.99 792 0 770.48 0 744 L0 588 L159.44 710.4 Z"
						class="st2"/>
			</g>
		</g>
	</g>
</svg>
