<?xml version="1.0" encoding="UTF-8" standalone="no"?>
<!DOCTYPE svg PUBLIC "-//W3C//DTD SVG 1.1//EN" "http://www.w3.org/Graphics/SVG/1.1/DTD/svg11.dtd">
<!-- 由 Microsoft Visio, SVG Export 生成 github.svg github-brands -->
<svg xmlns="http://www.w3.org/2000/svg" xmlns:xlink="http://www.w3.org/1999/xlink" xmlns:ev="http://www.w3.org/2001/xml-events"
		xmlns:v="http://schemas.microsoft.com/visio/2003/SVGExtensions/" width="8.5in" height="11in" viewBox="0 0 612 792"
		xml:space="preserve" color-interpolation-filters="sRGB" class="st3">
	<v:documentProperties v:langID="2052"/>

	<style type="text/css">
	<![CDATA[
		.st1 {fill:none;stroke:#f1f1f1;stroke-linecap:round;stroke-linejoin:round;stroke-width:30}
		.st2 {fill:#f1f1f1;stroke:none;stroke-linecap:butt;stroke-width:1.23387}
		.st3 {fill:none;fill-rule:evenodd;font-size:12px;overflow:visible;stroke-linecap:square;stroke-miterlimit:3}
	]]>
	</style>

	<g v:mID="0" v:index="1" v:groupContext="foregroundPage">
		<title>github-brands</title>
		<v:pageProperties v:drawingScale="1" v:pageScale="1" v:drawingUnits="19" v:shadowOffsetX="9" v:shadowOffsetY="-9"/>
		<v:layer v:name="连接线" v:index="0"/>
		<g id="shape1-1" v:mID="1" v:groupContext="shape" transform="translate(51.1432,-97.9767)">
			<title>工作表.2</title>
			<ellipse cx="270" cy="522.806" rx="270" ry="269.194" class="st1"/>
		</g>
		<g id="group2-3" transform="translate(108,-164.934)" v:mID="2" v:groupContext="group">
			<title>工作表.21</title>
			<g id="shape3-4" v:mID="3" v:groupContext="shape">
				<title>工作表.22</title>
				<path d="M140.52 710.63 C140.52 712.33 138.58 713.68 136.13 713.68 C133.33 713.93 131.38 712.58 131.38 710.63 C131.38
							 708.94 133.33 707.59 135.78 707.59 C138.33 707.33 140.52 708.69 140.52 710.63 ZM114.19 706.82 C113.59
							 708.51 115.29 710.46 117.83 710.98 C120.03 711.82 122.57 710.98 123.07 709.28 C123.59 707.59 121.98
							 705.64 119.43 704.87 C117.23 704.28 114.77 705.13 114.19 706.82 ZM151.63 705.39 C149.17 705.97 147.47
							 707.59 147.73 709.53 C147.98 711.23 150.19 712.33 152.73 711.73 C155.18 711.14 156.87 709.53 156.62
							 707.84 C156.37 706.23 154.08 705.13 151.63 705.39 ZM207.36 380.93 C89.87 380.93 0 470.09 0 587.53 C0
							 681.42 59.13 761.77 143.58 790.05 C154.42 792 158.24 785.31 158.24 779.81 C158.24 774.56 157.97 745.6
							 157.97 727.82 C157.97 727.82 98.69 740.52 86.23 702.59 C86.23 702.59 76.58 677.95 62.69 671.6 C62.69
							 671.6 43.28 658.3 64.04 658.56 C64.04 658.56 85.13 660.25 96.74 680.4 C115.29 713.08 146.37 703.69 158.49
							 698.11 C160.43 684.56 165.94 675.16 172.03 669.57 C124.69 664.32 76.91 657.46 76.91 576.01 C76.91 552.73
							 83.35 541.04 96.9 526.14 C94.7 520.63 87.5 497.94 99.11 468.65 C116.81 463.14 157.55 491.5 157.55 491.5
							 C174.5 486.76 192.71 484.31 210.75 484.31 C228.79 484.31 247.01 486.76 263.94 491.5 C263.94 491.5 304.69
							 463.06 322.39 468.65 C334 498.03 326.8 520.63 324.59 526.14 C338.15 541.13 346.45 552.81 346.45 576.01
							 C346.45 657.72 296.56 664.23 249.21 669.57 C257 676.26 263.61 688.96 263.61 708.86 C263.61 737.39 263.36
							 772.69 263.36 779.63 C263.36 785.14 267.25 791.83 278 789.88 C362.71 761.77 420.14 681.42 420.14 587.53
							 C420.14 470.09 324.85 380.93 207.36 380.93 ZM82.34 672.96 C81.24 673.8 81.49 675.75 82.93 677.36 C84.28
							 678.71 86.23 679.3 87.33 678.2 C88.44 677.36 88.18 675.41 86.74 673.8 C85.38 672.45 83.43 671.85 82.34
							 672.96 ZM73.19 666.1 C72.59 667.2 73.44 668.55 75.13 669.4 C76.49 670.25 78.18 669.99 78.77 668.8 C79.37
							 667.7 78.52 666.35 76.83 665.51 C75.13 664.99 73.78 665.25 73.19 666.1 ZM100.63 696.24 C99.28 697.34
							 99.78 699.88 101.73 701.48 C103.68 703.44 106.14 703.69 107.24 702.33 C108.34 701.23 107.83 698.69 106.14
							 697.09 C104.27 695.14 101.73 694.89 100.63 696.24 ZM90.98 683.79 C89.62 684.64 89.62 686.84 90.98 688.79
							 C92.33 690.73 94.62 691.58 95.72 690.73 C97.07 689.63 97.07 687.43 95.72 685.49 C94.53 683.54 92.33
							 682.69 90.98 683.79 Z" class="st2"/>
			</g>
		</g>
	</g>
</svg>
