<?xml version="1.0" encoding="UTF-8" standalone="no"?>
<!DOCTYPE svg PUBLIC "-//W3C//DTD SVG 1.1//EN" "http://www.w3.org/Graphics/SVG/1.1/DTD/svg11.dtd">
<!-- 由 Microsoft Visio, SVG Export 生成 wechat.svg github-brands -->
<svg xmlns="http://www.w3.org/2000/svg" xmlns:xlink="http://www.w3.org/1999/xlink" xmlns:ev="http://www.w3.org/2001/xml-events"
		xmlns:v="http://schemas.microsoft.com/visio/2003/SVGExtensions/" width="8.5in" height="11in" viewBox="0 0 612 792"
		xml:space="preserve" color-interpolation-filters="sRGB" class="st3">
	<v:documentProperties v:langID="2052" v:viewMarkup="false"/>

	<style type="text/css">
	<![CDATA[
		.st1 {fill:none;stroke:#f1f1f1;stroke-linecap:round;stroke-linejoin:round;stroke-width:30}
		.st2 {fill:#f1f1f1;stroke:none;stroke-linecap:butt;stroke-width:1.0625}
		.st3 {fill:none;fill-rule:evenodd;font-size:12px;overflow:visible;stroke-linecap:square;stroke-miterlimit:3}
	]]>
	</style>

	<g v:mID="0" v:index="1" v:groupContext="foregroundPage">
		<title>github-brands</title>
		<v:pageProperties v:drawingScale="1" v:pageScale="1" v:drawingUnits="19" v:shadowOffsetX="9" v:shadowOffsetY="-9"/>
		<v:layer v:name="连接线" v:index="0"/>
		<g id="shape2-1" v:mID="2" v:groupContext="shape" transform="translate(51.1432,-97.9767)">
			<title>工作表.2</title>
			<ellipse cx="270" cy="522.806" rx="270" ry="269.194" class="st1"/>
		</g>
		<g id="group19-3" transform="translate(132.143,-214.171)" v:mID="19" v:groupContext="group">
			<title>工作表.19</title>
			<g id="shape20-4" v:mID="20" v:groupContext="shape">
				<title>工作表.20</title>
				<path d="M255.8 578.6 C260.2 578.6 264.46 578.8 268.72 579.35 C257.31 525.81 199.52 486 133.81 486 C60.14 486 0 535.71
							 0 598.95 C0 635.41 20.14 665.53 53.54 688.82 L40.27 728.83 L87.01 705.55 C103.78 708.82 117.11 712.17
							 133.88 712.17 C138.14 712.17 142.2 711.97 146.46 711.62 C143.71 702.82 142.2 693.46 142.2 683.76 C142.13
							 625.79 192.3 578.6 255.8 578.6 ZM183.98 542.47 C193.95 542.47 200.61 549.1 200.61 559.14 C200.61 569.04
							 193.95 575.66 183.98 575.66 C173.81 575.66 163.85 569.04 163.85 559.14 C163.91 549.1 173.88 542.47 183.98
							 542.47 ZM90.24 575.66 C80.27 575.66 70.1 569.04 70.1 559.14 C70.1 549.03 80.27 542.47 90.24 542.47 C100.41
							 542.47 107.01 549.1 107.01 559.14 C107.01 569.11 100.41 575.66 90.24 575.66 ZM378 682.26 C378 629.06
							 324.46 585.77 264.33 585.77 C200.61 585.77 150.65 629.06 150.65 682.26 C150.65 735.46 200.68 778.75
							 264.33 778.75 C277.59 778.75 291.06 775.27 304.6 771.99 L341.3 792 L331.13 758.81 C358.07 738.74 378
							 712.17 378 682.26 ZM227.42 665.53 C220.75 665.53 214.15 658.91 214.15 652.15 C214.15 645.52 220.82 638.97
							 227.42 638.97 C237.59 638.97 244.19 645.59 244.19 652.15 C244.19 658.97 237.52 665.53 227.42 665.53
							 ZM301.03 665.53 C294.36 665.53 287.76 658.91 287.76 652.15 C287.76 645.52 294.43 638.97 301.03 638.97
							 C310.99 638.97 317.79 645.59 317.79 652.15 C317.86 658.97 310.99 665.53 301.03 665.53 Z" class="st2"/>
			</g>
		</g>
	</g>
</svg>
